<?xml version="1.0" encoding="utf-8"?>
<!-- Generator: Adobe Illustrator 24.0.1, SVG Export Plug-In . SVG Version: 6.00 Build 0)  -->
<svg version="1.1" id="Layer_1" xmlns="http://www.w3.org/2000/svg" xmlns:xlink="http://www.w3.org/1999/xlink" x="0px" y="0px"
	 viewBox="0 0 1920 500" style="enable-background:new 0 0 1920 500;" xml:space="preserve">
<style type="text/css">
	.st0{fill:#FDFDFC;}
</style>
<g>
	<path class="st0" d="M505.8,181.9c4.9,0,9.1-7.4,9.1-15.9c0-4.9-1.1-8.6-2.4-11.6c-1.7-2.5-4.2-4.3-6.6-4.3c-2.4,0-4.5,1.8-6.3,4.3
		c-1.8,3.1-2.8,7.4-2.8,11.6C496.7,174.6,500.9,181.9,505.8,181.9z"/>
	<path class="st0" d="M814.8,181.9c4.9,0,9.1-7.4,9.1-15.9c0-4.9-1.1-8.6-2.4-11.6c-1.7-2.5-4.2-4.3-6.6-4.3c-2.4,0-4.5,1.8-6.3,4.3
		c-1.8,3.1-2.8,7.4-2.8,11.6C805.7,174.6,809.9,181.9,814.8,181.9z"/>
	<path class="st0" d="M938.6,234l-1.4-0.6c-1.1,0-2.1,1.2-2.4,3.1c-4.9,23.3-11.5,50.9-19.2,73.5c-8,22.7-16.1,38.6-26.6,38.6h-1.7
		c-7.7-1.2-9.8-22.7-9.8-46s2.1-49,3.1-57.6c2.4,1.8,4.9,3.1,7,3.1c9.4,0,17.5-15.3,19.9-31.3c0.7-3.7,1.1-7.4,1.1-11.6
		c0-13.5-4.2-25.1-13.6-27l-5.2-0.6c-3.5,0-7,1.2-10.1,3.1c-12.6,8.7-21.2,40.2-23.7,74.2c-6.7,36.6-16.1,87.6-27,88.1
		c-5.6,0-7-19-7-42.3c0-31.2,2.8-70.5,2.8-82.1v-0.6c0-7.4-5.2-12.3-10.5-12.3h-1c-5.6,0-11.2,4.3-11.5,14.1
		c-0.4,3.1-0.9,10.7-1.3,20.8c-11.5,54.2-27.9,149.3-45.6,161.8h-0.4c-13.3,0-7.7-115.2-23.8-144c16.1-4.3,27.6-23.9,33.6-46
		c3.1-11.6,4.9-24.5,4.9-36.2c0-22.1-5.9-39.8-18.2-39.8h-2.1c-29.7,4.3-49.7,120.7-55.6,166.7c-1.1-22.7-1.4-47.8-1.4-73.5v-23.9
		c22.4-23.9,47.2-100.5,47.6-152c0-26.3-6.6-45.3-22-45.3h-1.8c-4.2,0-9.4,1.8-12.9,4.3c-15,11-23.8,57-28.3,112.1
		c-3.1,36.1-4.2,76-4.2,112.7c0,0.2,0,0.3,0,0.5c-8.2,41.6-25,146-36.4,152.1l-1.7,0.6c-4.9,0-6.3-13.5-6.3-33.1
		c0-41.7,6.6-111.5,6.6-159.3c0-15.3-0.7-28.2-2.4-37.4c-2.1-9.8-7.7-17.2-13.3-17.8h-0.7c-22.4,0-38.1,101.7-45.5,158.1l2.1-80.9
		c0-9.8-4.9-15.3-9.8-15.9h-1.1c-5.2,0-10.5,4.9-11.2,14.7c-0.5,5.1-0.8,13.4-1.1,23.2c-6.7,36-17.1,100-29.3,100.6
		c-5.6,0-7-19-7-42.3c0-31.2,2.8-70.5,2.8-82.1v-0.6c0-7.4-5.2-12.3-10.5-12.3h-1c-5.6,0-11.2,4.3-11.5,14.1
		c-0.3,2.7-0.8,8.7-1.1,16.8c-9.5,9.6-23.2,21.9-34.3,32.2c0.3-6.1,0.7-14.1,0.7-22.1c0-32.5-4.5-73.5-22.7-74.8
		c-18.5,0-28.7,38-34.6,71.1l1.4-29.4c0-11-5.2-14.7-11.9-14.7c-5.2,0-10.8,4.9-11.5,14.1c-22.4,26.3-50.4,35.5-80.8,35.5
		c-70.7,0-157.1-49.6-221.8-49.6c-29.7,0-56.7,7.4-73.1,40.4c-1.8,3.7-2.4,7.4-2.4,9.8c0,5.5,2.4,9.2,5.2,9.2c1.8,0,3.5-1.2,4.9-4.3
		c16.4-33.1,37.4-46,67.2-46c60.5,0,147.6,49.6,220,49.6c30.1,0,57.7-8.6,80.5-33.1c-1.8,35.5-2.4,87.6-2.8,137.2
		c0,52.1,0.7,100.5,2.4,124.4c0.4,6.7,4.2,9.8,8.4,9.8c4.5,0,9.1-4.3,9.1-12.9l-0.4-51.5c0-47.2,0.7-105.4,3.1-133
		c5.9-68.6,19.9-108.4,31.5-116.4c5.6,0.6,7.3,22.1,7.3,46c0,26.3-2.1,55.8-2.8,63.1c-12.9,14.7-27.6,33.7-27.6,53.3
		c0,11,5.6,22.1,11.9,22.1c17.8,0,33.6-50.9,37.8-87c10.7-9.9,24.6-22.4,35-32.7c-0.2,6.3-0.3,13.1-0.3,20.4
		c0,34.3,2.8,75.4,14.7,82.7c2.4,1.2,5.9,1.8,9.1,1.8l5.2-0.6c12.7-0.9,21.8-40.9,28.7-77.2c0,3.7,0,7.4,0,11.1
		c0,27.6,0.7,55.1,1.4,66.8c0.7,9.2,5.6,13.5,10.1,13.5c8,0,8.7-9.2,10.1-20.8c4.5-38.6,21-183.8,43.4-191.8
		c0.7,0.6,0.7,3.1,0.7,7.4c0,25.7-8.7,109.7-8.7,170.9c0,31.2,2.1,56.4,9.4,64.9c2.4,2.5,7.7,3.7,12.2,3.7c3.1,0,5.9,0,7.7-1.2
		c12.2-6.1,25.9-82.4,35.2-132.9c0.5,30,1.8,55.2,4,69.8c0.4,8,4.9,10.4,9.1,10.4h1.4c4.5-0.6,9.8-4.3,10.1-12.3
		c2.4-25.1,6.3-53.3,11.2-79c19.2,17.8,12.2,132.3,32.5,152.6c2.4,2.5,8,4.3,12.6,4.3c2.1,0,3.8,0,5.2-1.2
		c17.3-11.8,31.9-84,43.4-140.6c0.1,33.8,3,73.3,14.7,80.5c2.4,1.2,5.9,1.8,9.1,1.8l5.2-0.6c11.4-0.8,19.8-33,26.5-65.9
		c1.4,33.3,9.5,63.5,26,70.2c3.1,1.2,6.3,1.8,9.4,1.8c11.5-1.2,21.3-20.2,29.4-43.5c9.1-25.7,15.7-56.4,19.6-74.8v-1.8
		C939.7,236.4,939.7,234.6,938.6,234z M894.5,187.4c6.3,1.8,8.7,9.2,8.7,18.4c0,3.1,0,6.1-0.7,9.8c-2.4,11.6-8.4,23.3-15,23.3
		c-1.8,0-3.8-0.6-5.9-3.1C885.1,208.9,890,188,894.5,187.4z M717.5,17.1c12.2,0.6,16.4,16.5,16.4,36.2
		c-0.3,47.2-22.4,116.4-42,141.5C694.1,109.6,702.5,22.6,717.5,17.1z M418.3,357.8c-3.8,0-6.6-6.1-6.6-13.5c0-12.9,9.4-27,21-39.8
		C430.6,319.8,424.3,357.1,418.3,357.8z M707.7,245.6c6.6-32.5,21-90.7,37.8-98.6l1.7-0.6c2.8,0,3.8,4.3,3.8,9.8
		c0,13.5-4.9,34.9-5.9,39.2c-5.2,23.9-18.5,51.5-32.5,51.5L707.7,245.6z"/>
	<path class="st0" d="M1915.4,199.1c-1.7,0-3.5,1.2-4.9,4.3c-15,30.6-36.7,46-65.1,46c-31.1,0-67.5-11.6-105-23.9
		c-33.2-11-70-24.5-104.9-24.5c-8.4,0-16.8,0.6-24.8,2.5c-37.4,8-58.4,36.1-91.3,55.1v-3.1c0-33.7-9.8-70.5-28-70.5
		c-12.6,0-24.5,20.2-24.5,41.7c0,10.2,2.4,18.7,3.7,22.7c-13.7,49.2-34.8,147-51.7,153.1c-9.1-5.5-10.5-112.7-10.5-157.5v-17.2
		c23.1-28.2,44.1-96.2,49.3-149.5c1.1-9.2,1.4-17.2,1.4-25.1c0-26.3-5.2-45.3-18.5-48.4l-5.6-0.6c-7.3,0-15.7,2.5-20.3,8
		c-18.8,24.1-29.5,128.9-30.4,225.6l-3.2,17c-7.3,42.9-24.8,143.4-38.5,144.6c-1.4-2.5-2.1-17.8-2.1-38.6
		c0-50.9,3.1-133.6,4.5-148.9v-1.8c0-8-4.2-12.9-8.7-14.1l-2.8-0.6c-4.2,0-7.7,3.7-9.1,11c-5.9,36.2-20.3,122.5-29.7,135.4
		c-0.7-1.8-1.1-8.6-1.1-17.8c0-28.2,2.4-79.7,3.1-88.8l0.3-11.6c0-9.2-1.4-15.9-9.8-16.5c-5.2,0-10.8,3.7-11.5,14.7
		c-0.1,2.1-0.5,8.6-0.8,17.5c-6.1,29.2-30.9,163.9-41.2,163.9h-0.4c-3.8-0.6-5.2-12.9-5.2-28.2c0-26.3,3.5-61.9,4.5-72.9
		c2.1-26.3,4.2-52.7,4.2-72.9c0-14.1-1-25.1-3.8-31.2c-2.1-4.3-6.6-5.5-10.8-5.5c-3.8,0-7.3,1.2-9.1,2.5c-8,5.5-14.7,22.1-20.3,41.1
		c-6.3,23.3-10.8,50.9-13.3,68.6c-2.1-22.1-2.8-50.9-2.8-78.4v-15.3h0.4c16.9-12,33.5-59.4,42.2-105.4c6.6-4.5,12.7-10.2,18-17.7
		c2.8-4.3,5.6-8.6,8-14.1c1.1-3.1,1.8-5.5,1.8-8c0-5.5-3.1-9.2-6.3-9.2c-1.7,0-3.1,0.6-4.5,3.1c-1.4,3.1-2.1,5.5-2.1,7.4
		c0,3.1,1.1,6.1,1.1,8.6c0,2.5-0.7,4.9-2.8,7.4c-3.4,4.4-7.1,8-11,11.2c1.8-11.1,3.1-22,3.7-32l0.7-14.7c0-22.7-4.5-38-14.7-38
		c-7,0-12.9,1.8-18.9,6.1c-16.1,12.2-25.9,49.3-31.5,94.6c-18.4-0.8-38-4.4-57.7-8.3c1.8-26.3,3.8-51.5,6.3-77.2V22
		c0-8-4.9-12.9-10.5-13.5h-1.4c-5.9,0-11.5,3.7-12.2,11.6c-2.4,24.5-4.5,50.2-6.3,77.2c-15-2.5-29.4-4.3-43-4.3
		c-18.2,0-34.6,3.1-47.6,13.5c-4.2,3.1-13.3,10.4-13.3,20.8c0,1.8,0,3.1,0.3,4.3c1.1,4.3,3.5,6.7,5.9,6.7c1.8,0,3.8-1.2,5.6-3.1
		c2.4-4.3,2.4-8.6,2.4-12.3v-2.5c0-3.1,0-4.9,1.4-6.1c11.9-9.2,27.6-12.9,44.8-12.9c13.6,0,28,2.5,43,4.9
		c-2.4,41-3.5,84.6-3.5,124.4l0.3,38.6c1.4,68.6,7.7,123.2,19.6,136.6c3.1,3.7,6.6,4.9,9.8,4.9c2.8,0,5.2-0.6,7.7-1.8
		c18.3-7.4,31.9-92.9,42.5-145.8c0.8,28.4,2.5,53,4.7,69.8c0.3,5.5,4.2,7.4,8.4,7.4c1.7,0,3.5,0,5.2-0.6c3.8-1.2,8.7-4.9,8.7-12.9
		v-0.6c2.8-25.7,8-60,15.4-86.4c5.2-17.8,10.8-31.9,17.1-36.2c0.4,2.5,0.4,4.9,0.4,8.6c0,27.6-9.1,93.1-9.1,142.1
		c0,14.7,1.1,28.2,3.1,38c3.8,17.2,12.9,18.4,23.8,19h0.4c13,0,30.9-90.5,41.1-142c-0.1,5-0.1,10.1-0.1,15.2c0,28.8,1.4,57.6,7.7,65
		c1.4,1.8,4.9,3.1,8.4,3.1c2.1,0,4.2-0.6,5.9-1.8c8-7.4,18.5-58.2,25.9-99.9c-0.3,11.6-1.4,38-1.4,66.2c0,39.8,2.1,82.7,10.8,89.5
		c2.1,1.8,4.9,2.5,7.3,2.5l3.8-0.6c16.2-1.1,33-91.1,41.8-139.9c0.8,55.7,5,105.2,13.5,129.5c3.8,10.4,10.5,14.1,16.8,14.1
		c2.1,0,4.2-0.6,6-1.2c17.1-7.4,35.5-85.1,49.2-137.8c-0.3,6.5-0.6,14-0.6,22c0,22.1,1.7,46.6,9.4,60c2.8,4.9,7.7,6.1,11.9,6.1h1.7
		c15.7,0,24.5-57,26.6-93.1c33.2-18.4,54.9-47.8,92.4-56.4c7-1.2,14.3-2.5,22-2.5c34.6,0,73.8,14.7,106,25.1
		c37.8,12.3,74.2,23.9,105.6,23.9c29.7-0.6,56.7-8,72.8-41.1c1.7-3.7,2.4-7.4,2.4-9.8C1920.3,202.7,1918.2,199.1,1915.4,199.1z
		 M1413.4,127.4c4.5-58.8,13.3-113.3,25.9-113.3h0.7c10.1,1.8,14.3,17.2,14.3,38.6c0,7.4-0.7,15.3-1.4,23.3
		c-4.9,48.4-23.1,111.5-44.1,140.3C1409.5,185.6,1410.9,155,1413.4,127.4z M1176.9,200.9c0.3-17.2,1.3-49.8,4.2-82.8
		c11.5-1.1,22.3-3.8,32-8.9C1205.1,148.4,1191.6,188.4,1176.9,200.9z M1211.2,18.3h0.4c6.3,0,9.1,11,9.1,28.2l-0.7,15.3
		c-0.8,11.1-2.5,23.6-4.7,36.5c-9.9,6.2-21.1,9.6-33.2,11C1186.5,63,1195.2,18.7,1211.2,18.3z M1111.8,400
		c-7.7-3.7-11.9-49-13.3-112.1v-27c0-46.6,1.4-99.3,4.2-150.1c19.2,3.7,38.7,6.9,57,7.6c-0.2,2.1-0.5,4.3-0.7,6.5
		c-3.1,32.5-4.5,68-4.5,101.1c0,4.4,0,8.8,0.1,13.1C1145.6,278,1128.9,391.6,1111.8,400z M1493.1,352.2c-2.8-3.7-3.8-18.4-4.2-36.1
		c0-14.1,0.4-29.4,1.1-43.5c2.4,0.6,5.2,1.2,8,1.2c4.9,0,10.1-1.2,15.4-3.1C1511.3,307.5,1502.6,350.4,1493.1,352.2z M1514.1,261.6
		c-5.6,1.8-11.2,3.1-16.4,3.1c-2.4,0-4.9,0-7-0.6c1.1-15.3,2.4-21.4,3.1-30c0-11-4.9-12.3-11.2-14.1c-3.8,0-7.3,3.1-8,7.4
		c0,1.2-0.4,2.5-0.7,3.7c1.1-17.8,10.5-31.9,19.9-31.9c10.1,0,20.3,14.7,20.3,55.1V261.6z"/>
</g>
</svg>
